PathFileType	4	(X/Y/Z)	C:/Users/opensim2020/Desktop/walking_exp_matlab/subject03_walking17_run.trc																																																																																																																																																				
DataRate	CameraRate	NumFrames	NumMarkers	Units	OrigDataRate	OrigDataStartFrame	OrigNumFrames																																																																																																																																																
100	100	8	50	mm	100	253	132																																																																																																																																																
Frame#	Time	RTOE			LTHI			RWRB			LTIB			RELB			RUPA			RKNE			RTHI			RASI			RFRM			RWRA			RSHO			STRN			LFRM			CLAV			LWRB			LASI			RFHD			LFIN			LSHO			RTIB			LWRA			RBHD			LHEE			RANK			RHEE			C7			RFIN			LBHD			LUPA			LTOE			RBAK			LELB			LFHD			RPSI			LPSI			T10			LKNE			LANK			*39			*40			*41			*42			*43			*44			*45			*46			*47			*48			*49		
		X1	Y1	Z1	X2	Y2	Z2	X3	Y3	Z3	X4	Y4	Z4	X5	Y5	Z5	X6	Y6	Z6	X7	Y7	Z7	X8	Y8	Z8	X9	Y9	Z9	X10	Y10	Z10	X11	Y11	Z11	X12	Y12	Z12	X13	Y13	Z13	X14	Y14	Z14	X15	Y15	Z15	X16	Y16	Z16	X17	Y17	Z17	X18	Y18	Z18	X19	Y19	Z19	X20	Y20	Z20	X21	Y21	Z21	X22	Y22	Z22	X23	Y23	Z23	X24	Y24	Z24	X25	Y25	Z25	X26	Y26	Z26	X27	Y27	Z27	X28	Y28	Z28	X29	Y29	Z29	X30	Y30	Z30	X31	Y31	Z31	X32	Y32	Z32	X33	Y33	Z33	X34	Y34	Z34	X35	Y35	Z35	X36	Y36	Z36	X37	Y37	Z37	X38	Y38	Z38	X39	Y39	Z39	X40	Y40	Z40	X41	Y41	Z41	X42	Y42	Z42	X43	Y43	Z43	X44	Y44	Z44	X45	Y45	Z45	X46	Y46	Z46	X47	Y47	Z47	X48	Y48	Z48	X49	Y49	Z49	X50	Y50	Z50
																																																																																																																																																							
50	0.49	109.56173	41.2969	309.88629	-299.36295	620.90094	93.2693	-294.93979	961.05505	470.68814	-560.20679	376.07758	111.58002	-417.6124	1150.83154	498.16599	-376.03207	1238.88916	478.86349	-73.56781	505.6821	378.47079	-174.5972	651.87372	417.38684	-190.13365	926.99384	363.31451	-347.569	1046.44812	484.5722	-268.52078	996.29028	441.48233	-237.31798	1378.90088	386.4313	-112.37238	1163.99097	260.88284	-77.61074	1132.62854	80.31998	-151.9045	1334.11719	256.20023	-15.58341	1137.27209	168.8754	-165.88029	911.26819	135.17059	-196.94037	1624.70081	312.4642	18.59947	1146.4054	250.41071	-174.60783	1385.24658	103.25799	-62.05198	310.60144	381.8027	-55.90025	1165.74341	194.19028	-295.95755	1542.75171	292.5126	-781.30853	325.4657	171.12376	-31.45324	95.70802	335.02948	-67.84931	74.99309	277.53226	-274.99252	1402.12952	219.88879	-226.9558	932.81628	472.71967	-269.75995	1537.81226	164.60532	-149.40359	1215.09485	1.77407	-777.05206	138.92923	185.60901	-346.13748	1250.39038	295.46872	-131.22325	1114.26868	-13.17004	-166.15857	1620.13916	183.62611	-338.9465	974.49774	310.9809	-321.75983	967.62238	163.7204	-321.72748	1102.41821	219.16034	-369.79361	452.29007	122.78551	-747.77423	286.53336	138.52844	NaN	NaN	NaN	NaN	NaN	NaN	-273.23563	1650.10608	211.72531	NaN	NaN	NaN	NaN	NaN	NaN	NaN	NaN	NaN	NaN	NaN	NaN	NaN	NaN	NaN	NaN	NaN	NaN	NaN	NaN	NaN	NaN	NaN	NaN
51	0.5	121.57622	36.11898	308.2243	-257.66235	614.83606	93.64526	-249.98595	951.45166	475.25891	-512.84961	374.60693	114.70966	-373.72293	1139.8252	505.81226	-335.27728	1229.12878	485.36926	-43.80769	499.88327	379.58179	-140.5703	650.44769	417.29932	-155.44965	924.95642	365.22125	-303.06119	1036.12378	490.68704	-224.67842	987.20148	445.45978	-202.04541	1373.09192	389.29477	-78.17207	1159.79126	261.43564	-47.26197	1116.90417	81.52075	-117.7771	1329.88745	257.32834	18.30031	1112.82617	167.92914	-131.65443	908.62408	135.95934	-162.81992	1620.89294	313.6987	55.32206	1114.32031	248.51971	-141.08183	1380.23206	104.14832	-40.29777	302.65329	382.60168	-19.78409	1141.37317	196.78772	-261.68066	1538.64807	294.10486	-736.04083	336.07385	174.17862	-22.01029	86.76993	333.84848	-62.03136	62.98415	280.65698	-240.56554	1398.39319	222.24146	-181.44209	924.24597	475.65903	-236.01906	1533.72168	166.1111	-121.43407	1209.52246	1.71947	-739.84814	149.69286	186.79959	-311.46698	1244.52893	299.48553	-105.3143	1106.71643	-11.50892	-132.55823	1616.34753	184.7086	-305.82993	969.61987	310.90854	-288.5509	961.4574	164.34639	-288.2644	1098.21484	221.237	-320.88364	443.07513	123.09088	-704.26563	295.17093	141.13255	NaN	NaN	NaN	NaN	NaN	NaN	-239.27777	1646.05945	213.43178	NaN	NaN	NaN	NaN	NaN	NaN	NaN	NaN	NaN	NaN	NaN	NaN	NaN	NaN	NaN	NaN	NaN	NaN	NaN	NaN	NaN	NaN	NaN	NaN
52	0.51	124.12411	33.66373	306.07721	-216.16974	607.91595	93.72036	-203.998	941.0777	480.43719	-463.6293	372.457	117.779	-328.95819	1127.75378	513.41565	-293.87094	1218.19177	491.82349	-13.74119	492.41229	380.86542	-106.48186	647.35004	416.38187	-121.0206	922.55261	366.73074	-257.45029	1024.69958	497.05783	-180.33894	976.93634	448.62964	-166.58357	1366.422	392.12546	-43.99286	1154.63245	261.80957	-17.24475	1099.55359	82.13204	-83.57726	1324.61816	258.38828	51.365	1086.39319	165.33466	-97.6665	905.06824	136.53769	-128.4444	1616.34314	315.08069	91.54695	1080.22925	243.8503	-107.79271	1374.34473	105.05137	-19.69405	293.72922	382.51825	15.66073	1114.49219	197.97983	-227.39648	1533.73828	295.75763	-688.33301	345.4306	178.12328	-20.11595	79.02757	331.72427	-63.20134	52.87432	281.44031	-206.48712	1393.95605	224.58412	-135.29715	914.55127	477.80704	-202.14038	1528.75659	167.68161	-93.82856	1202.96899	2.09532	-698.65466	159.07959	185.70633	-276.97232	1238.28882	303.81119	-80.06636	1098.08923	-9.67712	-98.83103	1611.70862	185.74156	-272.99179	964.24158	310.8331	-255.91223	954.12073	164.45847	-254.85814	1093.47192	223.47627	-270.55063	433.58765	122.7838	-658.17603	303.41016	143.91414	NaN	NaN	NaN	NaN	NaN	NaN	-205.27727	1641.1958	214.94585	NaN	NaN	NaN	NaN	NaN	NaN	NaN	NaN	NaN	NaN	NaN	NaN	NaN	NaN	NaN	NaN	NaN	NaN	NaN	NaN	NaN	NaN	NaN	NaN
53	0.52	122.67728	33.72529	303.73013	-174.10324	600.00781	93.42416	-157.14415	929.82214	484.59644	-412.54163	369.37613	120.28961	-283.32901	1114.8938	521.02417	-251.84146	1206.13611	498.05231	17.14682	484.27536	381.05148	-72.80727	641.96649	416.70242	-87.0182	919.55621	368.16776	-211.49579	1012.37048	503.00095	-135.02771	965.84198	452.78046	-131.08109	1358.94507	395.03568	-10.25965	1148.51599	261.55695	12.22512	1080.88049	81.72878	-49.32066	1318.66418	259.21332	83.51241	1058.65222	161.06966	-64.54436	900.5293	136.98148	-94.42194	1611.31287	316.05356	125.60255	1044.12866	237.12831	-74.77605	1367.69812	105.78538	-0.15835	286.51065	381.78134	50.12527	1085.64978	197.48535	-192.94652	1528.21228	297.47037	-638.62738	353.05246	182.91151	-19.79326	74.56001	329.4321	-65.20335	47.40482	281.39883	-173.00543	1388.98206	226.95566	-88.43589	904.1629	479.87027	-168.31502	1523.07312	169.21642	-66.70748	1195.52063	3.01828	-652.82031	166.90257	183.04662	-242.66196	1231.49561	308.45572	-55.16206	1088.4751	-7.75445	-65.18167	1606.57886	186.67644	-240.76802	958.50128	311.14313	-223.74814	946.27417	165.00835	-221.69412	1088.09656	225.66125	-219.44199	422.9151	123.17332	-609.6593	310.71707	146.8466	NaN	NaN	NaN	NaN	NaN	NaN	-171.80998	1635.71802	216.53397	NaN	NaN	NaN	NaN	NaN	NaN	NaN	NaN	NaN	NaN	NaN	NaN	NaN	NaN	NaN	NaN	NaN	NaN	NaN	NaN	NaN	NaN	NaN	NaN
54	0.53	123.93507	33.64376	302.87286	-131.39679	591.37213	93.23219	-109.44234	918.14697	488.68951	-359.99673	366.39352	121.95869	-236.88861	1101.33496	528.5119	-209.09041	1192.92883	503.81223	48.47012	476.55963	379.58289	-40.61979	634.29669	418.76523	-53.88243	915.93207	369.59763	-164.40022	999.52191	508.77728	-88.46022	954.7204	456.08447	-95.61896	1351.05066	398.02832	23.47676	1141.96655	261.87198	40.96514	1061.15894	80.4542	-14.88252	1312.30505	260.03003	114.62945	1030.49646	155.06815	-32.17031	894.95612	137.58939	-60.02154	1606.61426	317.37662	157.63918	1007.00232	227.82556	-42.30004	1360.89075	106.00264	19.16379	282.19836	379.87384	83.11531	1055.55896	195.19351	-158.40039	1522.54993	299.2525	-587.49542	358.59476	187.83641	-15.93006	72.58332	326.46436	-63.9616	45.93551	278.93945	-139.59279	1383.30481	229.59105	-40.61533	893.83813	481.29172	-134.54063	1517.17261	170.84525	-40.13732	1186.94604	4.57935	-602.22748	172.6913	179.52069	-208.67853	1224.30237	313.0434	-31.05341	1078.36328	-5.76877	-31.68668	1601.67688	187.27069	-209.05466	952.52844	312.36813	-192.74467	938.10486	165.77992	-188.72256	1082.11646	227.7319	-166.6972	413.54724	122.40105	-558.6806	316.78116	149.87654	NaN	NaN	NaN	NaN	NaN	NaN	-137.88495	1629.79883	217.69847	NaN	NaN	NaN	NaN	NaN	NaN	NaN	NaN	NaN	NaN	NaN	NaN	NaN	NaN	NaN	NaN	NaN	NaN	NaN	NaN	NaN	NaN	NaN	NaN
55	0.54	124.58113	33.67791	301.77979	-87.99703	582.73206	93.28527	-61.30278	906.34143	491.60715	-305.90714	363.6171	123.13189	-189.60381	1087.40271	535.94812	-165.68265	1179.13953	509.74454	78.34099	469.34659	377.52393	-10.41416	626.7016	417.6004	-21.60016	911.56213	370.99911	-116.35783	986.61267	513.86652	-41.53128	943.91168	458.68112	-60.08872	1343.1167	401.07047	56.49919	1135.44226	261.17508	68.73628	1041.68396	78.44345	20.13632	1306.21875	260.70813	144.25011	1003.45422	147.67445	-0.90045	889.05304	138.43851	-26.01832	1602.50854	318.1907	187.46397	970.45752	215.66391	-9.96222	1354.21558	105.47173	41.09426	279.4097	375.58481	114.39403	1025.54968	191.56943	-123.64455	1517.21887	301.15756	-535.26331	361.82864	191.98073	-14.28078	73.55463	322.96353	-62.7982	46.58283	274.85764	-106.46958	1377.65601	232.32481	8.12014	884.27448	482.11935	-100.64006	1511.64661	172.47681	-14.1299	1177.43433	6.65552	-546.92914	176.0623	176.45706	-175.33258	1217.07617	317.59396	-7.36965	1068.63525	-3.54033	1.69779	1597.50659	187.80888	-177.40791	946.54004	314.35083	-162.51126	929.96228	166.76044	-156.45798	1076.375	229.99756	-113.45018	405.02258	122.25348	-505.5835	321.05792	152.43695	NaN	NaN	NaN	NaN	NaN	NaN	-104.81374	1624.47925	218.93541	NaN	NaN	NaN	NaN	NaN	NaN	NaN	NaN	NaN	NaN	NaN	NaN	NaN	NaN	NaN	NaN	NaN	NaN	NaN	NaN	NaN	NaN	NaN	NaN
56	0.55	124.78619	33.65152	300.89731	-42.76086	577.07336	93.65083	-11.18011	896.29694	493.96237	-250.48958	361.11551	123.81796	-141.32932	1073.67334	542.54614	-121.41544	1165.15076	515.26172	105.60793	464.133	374.16055	17.00387	622.02356	416.53973	10.33747	906.4209	372.54556	-66.96999	974.48193	517.75146	6.65114	934.39063	460.06412	-24.64661	1335.96826	404.04074	89.05347	1130.71729	260.36932	94.85268	1023.61627	75.86452	55.05314	1301.14722	261.05991	171.59276	979.73657	139.29292	29.7298	883.34375	139.45654	8.35518	1599.57813	319.24741	214.44812	936.01703	200.89389	22.07497	1348.0658	104.35934	59.13331	276.59012	371.65604	143.05038	996.92505	186.71579	-88.94426	1512.99707	303.05295	-482.29498	362.67905	194.56453	-12.29463	74.26342	321.41684	-62.69823	47.74761	273.68744	-73.10003	1373.98584	235.05725	58.3136	876.4187	481.65894	-67.02577	1507.35254	174.13815	11.37865	1167.72229	9.02447	-487.38077	176.91631	174.62613	-142.23196	1210.06433	321.73596	16.13361	1059.302	-0.82112	34.87182	1594.32764	188.36507	-145.26154	941.42249	316.80844	-132.66687	922.6582	168.04932	-124.41081	1073.0033	232.29443	-59.20398	399.03552	122.33182	-450.42856	323.19748	155.16469	NaN	NaN	NaN	NaN	NaN	NaN	-72.64426	1620.24597	220.40851	NaN	NaN	NaN	NaN	NaN	NaN	NaN	NaN	NaN	NaN	NaN	NaN	NaN	NaN	NaN	NaN	NaN	NaN	NaN	NaN	NaN	NaN	NaN	NaN
57	0.56	124.55482	33.55042	300.46768	2.66915	575.45007	93.97858	40.05923	888.40405	494.51474	-193.68164	358.83765	124.85406	-91.8671	1061.10535	548.48145	-76.2543	1153.36914	519.71021	129.92967	460.58197	371.02151	44.07387	618.3996	415.8175	42.59817	901.48425	374.19833	-16.50877	964.09955	519.88379	56.07359	927.05328	459.92023	11.22204	1330.37341	407.11368	121.6876	1127.28918	259.55701	118.59033	1008.8678	73.3392	88.7778	1297.81494	261.22937	196.72824	959.62701	130.49298	59.97177	878.39709	140.36646	42.55374	1597.26257	319.89975	237.60976	905.20679	184.55698	54.02259	1342.69287	102.98236	70.78876	273.93539	371.36053	169.20464	971.23755	180.67653	-54.51337	1510.40942	304.80698	-428.1947	360.77191	195.9463	-10.54494	74.55706	321.90878	-62.9197	49.04226	275.09018	-38.63833	1372.80237	237.65698	108.91566	871.0827	479.03387	-33.78777	1504.56824	175.78976	36.85059	1160.32275	11.53151	-425.03827	175.26392	174.39305	-108.80973	1206.66406	324.20468	38.82349	1050.58057	1.86892	67.92314	1591.75439	188.84801	-113.07604	939.46985	319.02649	-102.39777	918.07806	169.72363	-92.51511	1072.16064	234.46262	-4.21273	396.5661	123.40981	-394.24548	324.22073	157.59724	NaN	NaN	NaN	NaN	NaN	NaN	-39.7593	1617.16858	221.55962	NaN	NaN	NaN	NaN	NaN	NaN	NaN	NaN	NaN	NaN	NaN	NaN	NaN	NaN	NaN	NaN	NaN	NaN	NaN	NaN	NaN	NaN	NaN	NaN
